Coordinates
version=1
nRows=29
nColumns=24
inDegrees=yes

Units are S.I. units (second, meters, Newtons, ...)
Angles are in degrees.

endheader
time	pelvis_tilt	pelvis_list	pelvis_rotation	pelvis_tx	pelvis_ty	pelvis_tz	hip_flexion_r	hip_adduction_r	hip_rotation_r	knee_angle_r	ankle_angle_r	subtalar_angle_r	mtp_angle_r	hip_flexion_l	hip_adduction_l	hip_rotation_l	knee_angle_l	ankle_angle_l	subtalar_angle_l	mtp_angle_l	lumbar_extension	lumbar_bending	lumbar_rotation
      3.70000000	     13.23989208	      8.96082504	      6.08627077	     -0.38535199	      0.74434331	     -0.24517826	     12.16034874	     -9.73343997	    -13.28057616	    -14.64506689	     21.25760718	     16.29567260	      0.00000000	    -25.25868826	      9.12296759	     10.51972271	    -25.75142815	     27.78205712	     13.85423743	      0.00000000	    -35.22620154	     -7.05348320	     -8.88411575
      3.70500000	     13.24141031	      8.51372887	      6.12585064	     -0.37667245	      0.74400053	     -0.24457996	     12.03524395	     -9.05248500	    -12.73805466	    -15.35327230	     20.97101839	     15.28852242	      0.00000000	    -24.44938269	      8.72076329	     10.28682584	    -28.48013762	     26.89989232	     14.00558381	      0.00000000	    -34.98727279	     -6.68040830	     -8.51323200
      3.71000000	     13.27280208	      7.98458825	      6.12017785	     -0.36799844	      0.74369627	     -0.24395541	     11.90326022	     -8.26620854	    -12.07759873	    -16.17303117	     20.62574194	     14.10389395	      0.00000000	    -23.59229340	      8.25230424	      9.95090679	    -31.26221194	     25.85389596	     14.10028590	      0.00000000	    -34.76445682	     -6.23647219	     -8.08381813
      3.71500000	     13.28779810	      7.43447988	      6.06534216	     -0.35930348	      0.74340810	     -0.24322867	     11.79035190	     -7.42201917	    -11.23520490	    -17.03966766	     20.32165243	     12.65565778	      0.00000000	    -22.65125273	      7.76339677	      9.52202543	    -34.07080883	     24.53960541	     14.27673884	      0.00000000	    -34.51812154	     -5.81556235	     -7.58369778
      3.72000000	     13.31903477	      6.82184350	      6.00587289	     -0.35063696	      0.74315547	     -0.24248730	     11.67062069	     -6.50438073	    -10.37608203	    -17.97740235	     19.99821155	     11.16893996	      0.00000000	    -21.66071838	      7.20020516	      9.05279151	    -36.89625855	     23.10075252	     14.40569976	      0.00000000	    -34.28898893	     -5.32797457	     -7.09636474
      3.72500000	     13.35449259	      6.17513317	      5.92967995	     -0.34200144	      0.74293508	     -0.24169652	     11.54508980	     -5.53594371	     -9.47757567	    -18.94547072	     19.68974474	      9.65542720	      0.00000000	    -20.62093588	      6.58899392	      8.54665295	    -39.70153060	     21.54347254	     14.51693651	      0.00000000	    -34.06959053	     -4.81829401	     -6.60730161
      3.73000000	     13.38731020	      5.50171115	      5.85168668	     -0.33339077	      0.74274428	     -0.24088015	     11.40565991	     -4.53045617	     -8.58539498	    -19.90769211	     19.42849593	      8.14925580	      0.00000000	    -19.53276073	      5.93188277	      8.03114365	    -42.46917452	     19.91762056	     14.61291245	      0.00000000	    -33.85624686	     -4.28734851	     -6.12725960
      3.73500000	     13.42303936	      4.81086222	      5.77755099	     -0.32481353	      0.74259509	     -0.24004119	     11.24812147	     -3.50312011	     -7.72010897	    -20.86687208	     19.22645931	      6.73740774	      0.00000000	    -18.41874560	      5.23926906	      7.54991267	    -45.15730471	     18.27824730	     14.69018619	      0.00000000	    -33.65661566	     -3.73682338	     -5.68097539
      3.74000000	     13.45879850	      4.11863990	      5.71974927	     -0.31628901	      0.74248430	     -0.23920426	     11.05953346	     -2.47948492	     -6.93498720	    -21.78349521	     19.10015437	      5.45294022	      0.00000000	    -17.27398512	      4.52700738	      7.10601759	    -47.76464483	     16.71714767	     14.73234930	      0.00000000	    -33.47558512	     -3.18032747	     -5.27320120
      3.74500000	     13.49373753	      3.43554982	      5.68233892	     -0.30781881	      0.74241521	     -0.23838183	     10.83609941	     -1.47558310	     -6.24251719	    -22.64505218	     19.06440007	      4.33140201	      0.00000000	    -16.10635877	      3.81090414	      6.72359732	    -50.26975272	     15.29028824	     14.74708820	      0.00000000	    -33.31354254	     -2.62330996	     -4.91664851
      3.75000000	     13.52768828	      2.77202556	      5.67398503	     -0.29940941	      0.74238971	     -0.23759601	     10.57164832	     -0.50962625	     -5.66843461	    -23.43717051	     19.13344177	      3.40001530	      0.00000000	    -14.91935764	      3.10785577	      6.42126660	    -52.66203919	     14.05903666	     14.72921872	      0.00000000	    -33.17148458	     -2.07103087	     -4.61835513
      3.75500000	     13.55739917	      2.13831781	      5.69878981	     -0.29106676	      0.74240944	     -0.23685545	     10.26422638	      0.40465169	     -5.21612353	    -24.14462633	     19.30847326	      2.66444588	      0.00000000	    -13.71264147	      2.43465704	      6.20775901	    -54.93140198	     13.06627265	     14.68018484	      0.00000000	    -33.04968194	     -1.53231441	     -4.38271716
      3.76000000	     13.58895414	      1.54343596	      5.75530920	     -0.28279250	      0.74247929	     -0.23618416	      9.90558659	      1.25213519	     -4.90146247	    -24.76328202	     19.59614326	      2.14045984	      0.00000000	    -12.49439787	      1.80915969	      6.08090487	    -57.07217381	     12.34229165	     14.58969260	      0.00000000	    -32.95239401	     -1.01048337	     -4.20898913
      3.76500000	     13.65804187	      0.98352010	      5.82623679	     -0.27458148	      0.74263627	     -0.23559017	      9.45589698	      2.03056101	     -4.74974082	    -25.28663545	     19.97987712	      1.91184467	      0.00000000	    -11.31296975	      1.23104665	      6.00144812	    -59.06457685	     11.89983427	     14.38200786	      0.00000000	    -32.91821687	     -0.50185241	     -4.08514069
      3.77000000	     13.63453225	      0.48585492	      5.97456265	     -0.26646945	      0.74275256	     -0.23504093	      9.04827376	      2.73599231	     -4.63921831	    -25.69716281	     20.47022154	      1.62980972	      0.00000000	     -9.99629946	      0.73750819	      6.08895533	    -60.95517959	     11.73243027	     14.28536422	      0.00000000	    -32.81010694	     -0.04071324	     -4.03729596
      3.77500000	     13.64996634	      0.02527870	      6.12548806	     -0.25841151	      0.74296010	     -0.23457168	      8.54765442	      3.37405431	     -4.66559299	    -26.00812836	     21.02833793	      1.60900371	      0.00000000	     -8.72299292	      0.30476768	      6.19722445	    -62.68471025	     11.83181031	     14.04211382	      0.00000000	    -32.76422215	      0.40184431	     -4.01794885
      3.78000000	     13.66557827	     -0.39085794	      6.30010490	     -0.25042281	      0.74321497	     -0.23417594	      7.99596385	      3.94497713	     -4.79049975	    -26.21802423	     21.64193523	      1.71927875	      0.00000000	     -7.43923701	     -0.06080187	      6.35197050	    -64.26967418	     12.17564670	     13.72489403	      0.00000000	    -32.73746858	      0.82073268	     -4.03988998
      3.78500000	     13.69941041	     -0.77863016	      6.46892811	     -0.24247728	      0.74355075	     -0.23382567	      7.36249968	      4.48267951	     -4.93943741	    -26.29805990	     22.26440643	      1.93941603	      0.00000000	     -6.18444083	     -0.35705081	      6.54915829	    -65.68310767	     12.74127078	     13.28194970	      0.00000000	    -32.74876786	      1.20876860	     -4.02807838
      3.79000000	     13.65407981	     -1.08427486	      6.73163035	     -0.23462402	      0.74383434	     -0.23356340	      6.78172901	      4.90148753	     -5.25564004	    -26.32615937	     23.00127994	      2.23374692	      0.00000000	     -4.80890796	     -0.55288606	      6.85498044	    -66.98129072	     13.45947021	     12.88518242	      0.00000000	    -32.69402536	      1.55107814	     -4.16018439
      3.79500000	     13.64896366	     -1.37310678	      6.95190696	     -0.22679806	      0.74421086	     -0.23332514	      6.10694811	      5.30784050	     -5.55291419	    -26.24510626	     23.69587682	      2.60018521	      0.00000000	     -3.49634508	     -0.70234794	      7.12096442	    -68.09405116	     14.32042796	     12.31518574	      0.00000000	    -32.69612610	      1.86868557	     -4.23305064
      3.80000000	     13.64452144	     -1.62797214	      7.17541366	     -0.21899645	      0.74463617	     -0.23313000	      5.38011961	      5.67882316	     -5.86338816	    -26.06173001	     24.37972074	      3.00198293	      0.00000000	     -2.19498517	     -0.79260920	      7.39726076	    -69.03488957	     15.28155600	     11.65048289	      0.00000000	    -32.70775219	      2.15879407	     -4.29481120
      3.80500000	     13.67670934	     -1.88268825	      7.33873388	     -0.21123747	      0.74512662	     -0.23291005	      4.58593475	      6.06954594	     -6.09301882	    -25.80819831	     24.98159551	      3.32892924	      0.00000000	     -0.95000324	     -0.87156527	      7.60157168	    -69.80138728	     16.30056624	     10.84684520	      0.00000000	    -32.77688251	      2.42506794	     -4.23650580
      3.81000000	     13.65123019	     -2.05160185	      7.59671724	     -0.20349163	      0.74559388	     -0.23280142	      3.80571689	      6.34330285	     -6.47102621	    -25.48308188	     25.66542647	      3.82552697	      0.00000000	      0.35381306	     -0.83369220	      7.91539123	    -70.40979914	     17.35587539	     10.04342375	      0.00000000	    -32.78433901	      2.64611375	     -4.34662899
      3.81500000	     13.66194641	     -2.22552671	      7.77614303	     -0.19574458	      0.74612419	     -0.23265138	      2.95416335	      6.64865087	     -6.72201686	    -25.08171361	     26.25657627	      4.22448084	      0.00000000	      1.58536843	     -0.79799431	      8.13163374	    -70.83315911	     18.40152084	      9.10727868	      0.00000000	    -32.83909553	      2.84093680	     -4.31684931
      3.82000000	     13.68252593	     -2.40959431	      7.89350857	     -0.18799338	      0.74667598	     -0.23244788	      2.06296735	      6.99029095	     -6.83996961	    -24.60910251	     26.76804557	      4.48270311	      0.00000000	      2.77825839	     -0.78240879	      8.26389430	    -71.08385839	     19.42854736	      8.11598980	      0.00000000	    -32.90972038	      3.01555340	     -4.18326525
      3.82500000	     13.69719723	     -2.55252380	      8.03398165	     -0.18023990	      0.74723105	     -0.23227223	      1.14687462	      7.29158709	     -6.96056617	    -24.08390844	     27.25680448	      4.77121527	      0.00000000	      3.95442237	     -0.71895870	      8.41244376	    -71.17256625	     20.40726368	      7.08326802	      0.00000000	    -32.97432555	      3.15703850	     -4.08691407
      3.83000000	     13.71600629	     -2.67907009	      8.14234439	     -0.17249218	      0.74778483	     -0.23211598	      0.20685140	      7.57686127	     -7.03564545	    -23.51899837	     27.71135560	      5.04183479	      0.00000000	      5.09366007	     -0.63640174	      8.52331876	    -71.09815984	     21.31942399	      6.01993433	      0.00000000	    -33.05070719	      3.27932932	     -3.95144483
      3.83500000	     13.73883665	     -2.78536040	      8.22262422	     -0.16471409	      0.74832985	     -0.23194842	     -0.76064560	      7.84835842	     -7.03942392	    -22.91763890	     28.12820238	      5.28311247	      0.00000000	      6.18882709	     -0.54178876	      8.59451280	    -70.86300929	     22.16293078	      4.95007073	      0.00000000	    -33.12972534	      3.37058412	     -3.78724805
      3.84000000	     13.77746188	     -2.87509259	      8.27728967	     -0.15691987	      0.74887081	     -0.23178779	     -1.76588624	      8.10498330	     -6.98799259	    -22.28050479	     28.50151031	      5.51406139	      0.00000000	      7.22819671	     -0.43992260	      8.62551385	    -70.47328425	     22.89827745	      3.84798832	      0.00000000	    -33.22754845	      3.43975216	     -3.58541522
